<?xml version="1.0" encoding="UTF-8"?>
<svg viewBox="0 0 843.28094 917.54395" xmlns="http://www.w3.org/2000/svg">
 <g transform="translate(-37.064 -65.799)" stroke="#caca25">
  <path d="m107.18 952.65c-6.2049 4.4138-14.988 7.5142-20.888 11.946-14.223 8.9371-33.997 22.576-48.725 16.908 1.0729-3.4931 0.86937-6.4771 4.5836-11.388 5.6388-5.751 9.7646-12.726 14.8-18.967 4.7395-8.8477 7.0811-14.595 11.551-22.779 4.2285-8.8322 8.774-14.503 11.988-22.3 1.9393-9.8531 11.065-14.582 15.756-22.734 2.9008-4.2521 5.6843-8.5938 9.0759-12.431 2.0144-3.7901 2.9967-8.0812 6.5105-11.043 2.6525-3.2056 5.5059-6.3964 7.922-9.9566 3.5578-3.5845 6.5216-7.5996 10.83-10.471 4.8148-4.2422 10.181-8.1473 13.631-13.805 4.3242-6.2474 8.8395-12.473 12.681-19.045 3.4063-5.666 6.7508-11.133 8.5175-17.594 4.049-9.1534 8.3826-18.206 10.902-27.964 3.587-10.171 7.415-20.266 10.529-30.595 2.9776-9.3765 6.4097-18.59 9.2966-27.994 2.4351-9.7235 4.7176-19.456 7.693-29.035 2.1052-9.8699 3.8582-19.845 4.23-29.967 1.1674-10.569 2.5841-21.059 5.6154-31.294 3.7868-11.463 7.9752-22.778 11.753-34.249 4.0308-12.624 8.3468-25.179 14.834-36.807 8.4412-14.224 16.541-28.698 26.384-42.026 11.311-16.552 22.644-33.101 35.529-48.494 11.688-12.51 22.731-25.635 34.946-37.651 11.902-12.076 24.221-23.893 34.785-37.168 8.9376-11.488 17.364-23.443 28.654-32.795 14.249-11.877 28.891-23.051 44.695-32.848 21.843-17.277 47.186-29.988 71.412-43.342 7.0454-2.7425 14.133-5.6036 21.748-6.2393 9.0914 0.87074 18.223 1.5654 27.006 4.4176 9.8486 3.2017 19.681 6.4754 29.307 10.305 8.405 4.576 15.97 9.7996 22.655 16.775 6.1868 6.0968 12.136 12.374 17.011 19.623 3.9663 7.0807 7.9655 14.01 10.404 21.844 2.3358 6.0292 5.0089 11.78 5.3333 18.401-0.0049 5.941-0.00587 11.882-0.02993 17.823-0.03141 6.9547-0.07924 13.91-0.06452 20.864-0.13911 5.7587-0.03564 11.558-1.1586 17.237-1.1299 5.7752-2.5773 11.404-3.0548 17.306-2.474 8.5406-5.1101 16.973-8.3064 25.288-4.8322 10.23-10.524 19.972-15.384 30.188-4.2562 10.02-8.3289 20.075-10.792 30.724-5.6999 12.663-12.073 24.991-20.32 36.261-11.274 14.789-23.413 28.744-35.544 42.842-12.429 16.354-24.503 33.012-37.417 48.963-12.555 16.227-24.847 32.698-38.315 48.184-14.959 15.269-30.383 30.103-46.39 44.267-13.354 11.587-26.686 23.212-39.942 34.901-12.254 10.61-24.699 20.994-36.394 32.228-12.581 10.532-25.41 20.668-39.64 28.947-64.921 47.287-72.61 46.504-108.18 68.319 85.186-50.729-89.707 52.503 2.4418-1.7065-20.41 11.772-39.033 24.862-61.4 31.698-20.458 15.029-23.08 14.978-43.07 26.427z" fill="#f60"/>
  <path d="m386.21 386.23c5.1151-0.36253 7.3199 3.019 11.037 5.9589 14.374 14.38 27.314 30.304 40.676 45.664 23.288 26.606 48.603 51.077 77.683 71.233 16.873 11.461 34.406 19.246 54.579 19.928 1.0906 1.6019 6.4224-3.3454 6.9936-3.6429l-32.549 26.209c-2.5747 0.53933-4.8658 2.3534-7.7242 1.618-19.77-3.1417-37.025-11.912-53.394-23.703-28.663-21.013-53.658-46.204-78.123-71.9-14.176-14.716-27.81-30.298-43.533-43.34-3.3748-1.0585-6.0358-4.6497-10.233-2.8942l34.588-25.13z" fill="#d45500"/>
  <path d="m373.33 474.43c3.1689 9.1809 10.292 17.451 16.028 25.382 16.872 24.924 38.891 44.948 62.328 63.47 14.989 12.056 31.752 18.577 50.297 21.818 4.9461 0.72313 9.6468-0.52808 14.444-1.1705l-33.302 24.978c-4.8626 0.13567-9.7227 0.70731-14.576-0.22341-18.353-4.7103-34.845-12.326-49.413-24.989-23.143-19.307-45.351-39.632-63.865-63.567-7.025-8.3816-14.909-16.617-20.034-26.288l38.093-19.409z" fill="#d45500"/>
  <path d="m327.96 574.12c8.2688 8.6582 18.039 15.672 27.585 22.818 9.041 6.12 16.989 13.591 25.344 20.571 6.9251 6.9559 15.18 11.849 23.436 16.878 4.7782 2.3027 9.961 2.3248 15.092 2.8557l-34.152 24.381c-5.4296-1.0073-10.929-1.4516-15.799-4.4297-8.1863-5.5225-16.316-11.018-23.499-17.898-8.3162-6.82-16.282-14.035-24.91-20.472-9.7504-7.491-19.514-14.964-29.136-22.618l36.04-22.085z" fill="#d45500"/>
  <path d="m278.55 630.12c7.0807 8.4969 14.619 16.586 22.093 24.736 13.857 15.126 28.909 29.164 44.623 42.342 8.1156 8.2549 17.786 12.666 28.218 16.655 2.9318 0.74948 5.9715 0.50199 8.9472 0.75213l-34.105 24.448c-3.1044-0.55643-6.372-0.44194-9.3535-1.6765-10.158-5.08-19.769-10.448-27.691-19.014-15.392-13.74-30.431-27.925-44.875-42.654-7.8331-8.0098-15.667-16.082-24.272-23.273l36.416-22.316z" fill="#d45500"/>
  <path d="m256.19 728.71c3.2377 5.0214 8.62 9.5509 13.061 13.858 13.122 12.718 27.865 23.521 42.735 34.072 10.693 7.5748 22.622 12.561 35.038 16.404l2.6982 0.79382-34.848 23.536-2.2826-0.98451c-12.126-4.7856-23.884-10.359-34.32-18.321-14.963-10.811-29.786-21.847-43.766-33.919-5.7238-4.9904-12.195-9.6538-16.409-16.03l38.093-19.409z" fill="#d45500"/>
  <path d="m193.49 791.7c4.9504 2.3991 9.6164 5.2482 14.298 8.3295 6.9748 4.1734 14.258 7.7208 21.54 11.326 8.8564 3.1626 18.056 5.0953 27.042 7.9375 9.7931 2.8006 19.487 5.9065 29.233 8.8634 3.5754 1.1982 7.3626 1.3817 11.033 2.0705l-34.217 24.019c-3.6846-0.90321-7.4969-1.36-11.072-2.7141-9.6566-3.1951-19.382-6.1088-29.114-9.0598-9.2459-2.5885-18.797-4.377-27.616-8.2425-7.4232-3.6354-14.774-7.3908-21.916-11.561-4.8483-2.7779-9.5136-5.6634-14.818-7.5395l35.608-23.429z" fill="#d45500"/>
  <path d="m451.92 359.8c7.1267 2.6846 13.179 8.3332 19.292 12.888 15.538 12.511 32.75 22.605 49.039 34.034 16.96 12.705 35.585 22.239 56.053 27.618 12.249 3.7126 23.849 2.2608 36.057-0.0625l-33.078 24.952c-12.319 1.7305-24.071 1.8754-36.109-2.1942-20.36-6.2286-38.886-16.659-56.109-29.133-16.651-11.223-33.997-21.388-50.115-33.413-6.1225-3.8619-12.125-9.4846-19.618-9.5605l34.588-25.13z" fill="#d45500"/>
  <path d="m524.54 316.21c7.2915 5.1242 14.424 10.963 21.444 16.659 13.557 11.051 29.303 18.862 44.851 26.65l-33.904 22.299c-15.42-8.504-31.176-16.649-45.256-27.304-7.6635-5.6152-15.421-11.037-23.425-16.064l36.291-22.239z" fill="#d45500"/>
  <path d="m160.95 845.73c-0.0678 1.9939 1.7119 3.7281 2.5246 5.4981 2.7638 4.444 6.9505 7.7404 10.706 11.315 3.7692 4.3499 8.3343 7.7147 12.934 11.093 2.5278 2.9819 5.6852 3.1353 9.0775 4.1284 2.4289-0.33422 4.5136 1.2672 6.6708 1.8728l-24.857 16.514c-2.0578-0.44389-4.0641-1.2876-6.215-1.3407-3.4573-1.4901-7.095-2.1639-9.6877-5.3065-4.4793-3.6272-8.8851-7.2998-12.906-11.447-3.967-3.7508-8.263-7.2565-11.379-11.792-1.3737-2.1681-3.0772-4.3663-3.804-6.8104l26.936-13.725z" fill="#d45500"/>
  <path d="m578.67 308.3c-0.19708-6.9275 3.5753-11.121 7.5015-16.379 6.7801-8.5993 16.035-14.243 25.147-19.995 21.438-16.298 43.667-24.065 67.741-33.048 14.684-5.5488 30.085-8.6766 45.383-11.999 20.335-3.7692 41.085-4.5119 61.713-5.0814 20.489-0.33343 40.982-0.33063 61.474-0.42809 10.74-0.0861 21.479-0.20271 32.218-0.33582l-33.523 24.347c-10.376-0.17099-20.753-0.32993-31.13-0.45237-20.354-0.1467-40.71-0.25974-61.06 0.28058-20.636 0.67179-41.39 1.505-61.627 5.9625-15.464 3.5581-31.003 7.0014-45.749 13.004-15.959 5.9584-61.386 25.717 3.0163-7.0559-9.0588 5.3873-18.542 10.527-25.477 18.651-3.3363 4.2453-8.0361 7.328-7.535 13.119l-38.093 19.409z" fill="#008000"/>
  <path d="m586.67 301.73c-0.16704-3.8435 0.88889-7.5247 1.4222-11.281 1.0571-9.5145 2.9254-18.836 4.9356-28.195 3.37-15.629 12.125-27.591 22.152-39.499 10.813-11.494 23.625-20.611 36.582-29.462 24.291-15.354 49.136-29.921 74.835-42.765 6.253-3.2603 12.854-5.7263 19.344-8.4417l-32.184 25.315c-6.34 2.7227-12.775 5.237-18.91 8.4234-37.727 19.632 41.993-25-5.3715 2.7172-13.036 8.5699-25.865 17.47-36.94 28.56-10.228 11.13-19.15 22.264-22.746 37.387-1.7241 9.1612-3.6439 18.215-3.8612 27.566-0.44663 3.4456-1.8506 6.7543-1.1656 10.267l-38.093 19.409z" fill="#008000"/>
  <path d="m575.29 275.65c0.53655-7.3435 0.52009-14.711 0.62396-22.069 0.17466-13.397 0.25818-26.796 0.25404-40.194-0.40194-16.095-5.3246-31.18-11.587-45.842-7.0477-16.029-14.72-31.765-22.322-47.534-4.8451-11.278-12.194-20.601-20.034-29.647l-2.6396-1.4615 35.227-22.598 2.8845 2.1533c8.0604 9.566 13.998 20.452 19.587 31.689 7.5664 15.851 15.182 31.672 22.306 47.73 6.5427 15.078 12.167 30.43 12.824 47.044-0.00411 13.312 0.07823 26.625 0.25404 39.935 0.10235 7.1453 0.07457 14.303 0.62396 21.433l-38.001 19.362z" fill="#008000"/>
  <path d="m576.65 299.21c-3.6332-3.2261-6.2001-7.4416-9.0852-11.378-5.3607-7.5202-10.191-15.379-15.269-23.084-6.3565-9.5911-13.558-18.583-20.677-27.608-8.468-11.458-19.088-21.06-29.375-30.835-9.5659-8.8347-19.976-16.528-31.009-23.36-5.9042-2.3219-11.431-5.4645-17.058-8.2199-2.1567-1.1826-4.2446-2.417-6.3773-3.6314l35.405-22.845c2.127 1.235 4.3217 2.3485 6.3777 3.703 5.503 2.7611 11.043 5.4783 16.397 8.5449 10.729 7.5386 21.053 15.603 30.676 24.551 10.554 9.8368 21.362 19.539 30.173 31.03 7.2175 9.0857 14.458 18.174 21.066 27.718 5.2101 7.6214 10.053 15.476 15.559 22.892 1.7105 1.9662 6.376 8.7724 7.784 7.3936l-34.588 25.13z" fill="#008000"/>
  <path d="m587.24 316.87c-0.36964-3.4874 0.94136-6.7588 1.4368-10.098 12.49-14.982 29.53-20.548 47.79-31.146 9.4537-2.5356 19.316-2.5748 29.032-2.9873 13.095-0.48454 26.15 0.03466 39.177 0.85047 14.311 1.7812 28.465 3.5667 42.539 6.6455 14.396 3.6122 28.371 8.0385 42.207 13.38 12.835 4.7766 25.832 9.1049 38.952 12.995 11.867 4.3001 23.299 9.7747 34.657 15.262 4.7632 1.9321 8.2676 5.5172 12.173 8.6312l-35.391 21.871c-3.6704-2.6319-6.6107-6.4429-11.105-7.9633-11.138-5.4108-22.342-10.863-34.174-14.62-13.008-4.2493-25.943-8.7314-38.764-13.533-13.757-5.0481-27.674-9.3799-41.908-12.926-14.026-2.6018-28.13-4.4613-42.305-6.165-13.089-0.46889-26.193-0.73156-39.299-0.07699-9.6482 0.58287-19.57 0.60632-28.395 5.009 60.956-35.473 36.237-21.952 23.305-12.719-0.56935 2.5384-3.2435 5.1238-1.8344 8.1787l-38.093 19.409z" fill="#008000"/>
 </g>
</svg>
