<?xml version="1.0" encoding="UTF-8"?>
<!DOCTYPE svg  PUBLIC '-//W3C//DTD SVG 1.1//EN'  'http://www.w3.org/Graphics/SVG/1.1/DTD/svg11.dtd'>
<svg width="89.094mm" height="297mm" clip-rule="evenodd" fill-rule="evenodd" image-rendering="optimizeQuality" shape-rendering="geometricPrecision" text-rendering="geometricPrecision" version="1.1" viewBox="0 0 8909 29700" xml:space="preserve" xmlns="http://www.w3.org/2000/svg" xmlns:xlink="http://www.w3.org/1999/xlink">
 <defs>
  <style type="text/css">
    .fil4 {fill:#008DD2}
    .fil22 {fill:#00A0E3}
    .fil32 {fill:#2B2A29}
    .fil14 {fill:#434242}
    .fil21 {fill:#5B5B5B}
    .fil0 {fill:#727271}
    .fil11 {fill:#7690C9}
    .fil24 {fill:#9D9E9E}
    .fil17 {fill:#E31E24}
    .fil18 {fill:#EBECEC}
    .fil26 {fill:#FECC00}
    .fil1 {fill:url(#aa)}
    .fil16 {fill:url(#ag)}
    .fil6 {fill:url(#z)}
    .fil7 {fill:url(#ar)}
    .fil31 {fill:url(#as)}
    .fil8 {fill:url(#at)}
    .fil13 {fill:url(#ae)}
    .fil25 {fill:url(#au)}
    .fil2 {fill:url(#af)}
    .fil12 {fill:url(#av)}
    .fil15 {fill:url(#ah)}
    .fil29 {fill:url(#y)}
    .fil30 {fill:url(#ai)}
    .fil20 {fill:url(#aj)}
    .fil33 {fill:url(#ak)}
    .fil34 {fill:url(#ab)}
    .fil10 {fill:url(#al)}
    .fil23 {fill:url(#am)}
    .fil27 {fill:url(#ac)}
    .fil9 {fill:url(#ad)}
    .fil28 {fill:url(#an)}
    .fil19 {fill:url(#ao)}
    .fil5 {fill:url(#ap)}
    .fil3 {fill:url(#aq)}
  </style>
  <linearGradient id="aa" x1="4349.4" x2="4349.4" y1="4254" y2="10044" gradientUnits="userSpaceOnUse">
   <stop stop-color="#D7D6D5" offset="0"/>
   <stop stop-color="#BAB8B6" offset="1"/>
  </linearGradient>
  <linearGradient id="ag" x1="4461.5" x2="4461.5" y1="9187.5" y2="14978" gradientUnits="userSpaceOnUse" xlink:href="#aa">
  </linearGradient>
  <linearGradient id="z" y1="50%" y2="50%">
   <stop stop-color="#0A95FF" offset="0"/>
   <stop stop-color="#6CADF7" offset=".3098"/>
   <stop stop-color="#0622C2" offset="1"/>
  </linearGradient>
  <linearGradient id="ar" y1="50%" y2="50%" xlink:href="#z">
  </linearGradient>
  <linearGradient id="as" x1="3723" x2="5211.4" y1="15926" y2="15926" gradientUnits="userSpaceOnUse" xlink:href="#z">
  </linearGradient>
  <linearGradient id="at" y1="50%" y2="50%">
   <stop stop-color="#A05843" offset="0"/>
   <stop stop-color="#BA7661" offset=".2902"/>
   <stop stop-color="#80402D" offset="1"/>
  </linearGradient>
  <linearGradient id="ae" x1="1619" x2="7305.5" y1="9343.7" y2="9343.7" gradientUnits="userSpaceOnUse">
   <stop stop-color="#CA2A32" offset="0"/>
   <stop stop-color="#DB949B" offset=".27059"/>
   <stop stop-color="#911" offset="1"/>
  </linearGradient>
  <linearGradient id="au" x1="1931.2" x2="7036.3" y1="17218" y2="17218" gradientUnits="userSpaceOnUse" xlink:href="#ae">
  </linearGradient>
  <linearGradient id="af" y1="50%" y2="50%">
   <stop stop-color="#E03038" offset="0"/>
   <stop stop-color="#EAA9AF" offset=".27059"/>
   <stop stop-color="#B81E1E" offset="1"/>
  </linearGradient>
  <linearGradient id="av" x1="1610.9" x2="7313.7" y1="13283" y2="13283" gradientUnits="userSpaceOnUse" xlink:href="#af">
  </linearGradient>
  <linearGradient id="ah" x1="1605.6" x2="7360.4" y1="6742.6" y2="6742.6" gradientUnits="userSpaceOnUse">
   <stop stop-color="#F6C2C5" offset="0"/>
   <stop stop-color="#F6E0E2" offset=".27059"/>
   <stop stop-color="#EBABB0" offset="1"/>
  </linearGradient>
  <linearGradient id="y" x1="1688.3" x2="7223.1" y1="15918" y2="15918" gradientUnits="userSpaceOnUse">
   <stop stop-color="#623620" offset="0"/>
   <stop stop-color="#CC9E20" offset=".12157"/>
   <stop stop-color="#fff" offset=".23922"/>
   <stop stop-color="#CF9A30" offset=".52157"/>
   <stop stop-color="#662D29" offset="1"/>
  </linearGradient>
  <linearGradient id="ai" x1="3599" x2="5335.4" y1="15926" y2="15926" gradientUnits="userSpaceOnUse" xlink:href="#y">
  </linearGradient>
  <linearGradient id="aj" x1="1684" x2="7230.2" y1="4469.3" y2="4469.3" gradientUnits="userSpaceOnUse" xlink:href="#y">
  </linearGradient>
  <linearGradient id="ak" x1="3621.7" x2="5292.5" y1="1941.4" y2="1941.4" gradientUnits="userSpaceOnUse">
   <stop stop-color="#623620" offset="0"/>
   <stop stop-color="#CC9E20" offset=".12157"/>
   <stop stop-color="#CF9A30" offset=".52157"/>
   <stop stop-color="#662D29" offset="1"/>
  </linearGradient>
  <linearGradient id="ab" x1="1457.5" x2="7467.1" y1="28741" y2="28825" gradientUnits="userSpaceOnUse">
   <stop stop-color="#666564" offset="0"/>
   <stop stop-color="#808182" offset=".45882"/>
   <stop stop-color="#141515" offset="1"/>
  </linearGradient>
  <linearGradient id="al" x1="1761.7" x2="6969.3" y1="2252.3" y2="2355.9" gradientUnits="userSpaceOnUse" xlink:href="#ab">
  </linearGradient>
  <linearGradient id="am" x1="4257.5" x2="4573.7" y1="6726.7" y2="6726.7" gradientUnits="userSpaceOnUse">
   <stop stop-color="#EDB1B4" offset="0"/>
   <stop stop-color="#D49096" offset="1"/>
  </linearGradient>
  <radialGradient id="ac">
   <stop stop-color="#FCCE15" offset="0"/>
   <stop stop-color="#FCCE15" offset=".011765"/>
   <stop stop-color="#C89A00" offset=".14902"/>
   <stop stop-color="#FCCE15" offset=".23922"/>
   <stop stop-color="#D29700" offset=".30196"/>
   <stop stop-color="#D29700" offset=".45098"/>
   <stop stop-color="#FFCB9A" offset=".56078"/>
   <stop stop-color="#C89A00" offset=".61961"/>
   <stop stop-color="#CF9A00" offset=".81961"/>
   <stop stop-color="#FFCB9E" offset=".87059"/>
   <stop stop-color="#D59700" offset=".98824"/>
   <stop stop-color="#C89A00" offset="1"/>
  </radialGradient>
  <radialGradient id="ad" cy="25%">
   <stop stop-color="#726F73" offset="0"/>
   <stop stop-color="#1F1B20" offset="1"/>
  </radialGradient>
  <radialGradient id="an" xlink:href="#ac">
  </radialGradient>
  <radialGradient id="ao" cy="25%" xlink:href="#ad">
  </radialGradient>
  <radialGradient id="ap" cx="90%" r="45%">
   <stop stop-color="#D99399" offset="0"/>
   <stop stop-color="#E1AAAF" offset=".67843"/>
   <stop stop-color="#F6C2C5" offset="1"/>
  </radialGradient>
  <radialGradient id="aq" cx="135%" cy="100%" r="44%">
   <stop stop-color="#0F05A1" offset="0"/>
   <stop stop-color="#3066E3" offset=".61961"/>
   <stop stop-color="#0A74FF" offset="1"/>
  </radialGradient>
 </defs>
   <path class="fil0" d="m2704 10044h3486c688 0 1339-151 1251-327-57-114-187-225-171-341 17-121 247-222 263-342 16-116-186-225-170-341 16-121 591-221 607-342 16-116-186-225-171-341 17-121 247-221 264-342 15-116-187-225-171-341 16-120 247-221 263-342 16-116-186-224-170-341 16-120 209-223 263-341 50-112 67-228 46-342-21-116-185-225-171-341 15-120 261-222 255-342-34-761-991-922-1555-1024h-4855c-404 119-1657 182-1545 1072 14 114 221 227 235 341 15 114-164 228-150 342 15 113 29 227 43 341s221 228 236 341c14 114-165 228-150 342 14 114 221 228 235 341 14 114-164 228-150 342s221 227 236 341c14 114-165 228-150 342 14 113 696 180 710 294 14 113-164 227-150 341s221 228 235 342c15 113-164 227-150 341 23 180 563 327 1251 327z"/>
   <path class="fil1" d="m2762 10044h3366c665 0 1293-151 1209-327-55-114-181-225-165-341 15-121 238-222 254-342 15-116-180-225-165-341 16-121 571-221 586-342 16-116-180-225-164-341 15-121 238-221 254-342 15-116-180-225-165-341 16-120 239-221 254-342 16-116-180-224-164-341 15-120 202-223 254-341 49-112 64-228 44-342-20-116-178-225-164-341 14-120 251-222 246-342-33-761-957-922-1502-1024h-4688c-391 119-1600 182-1493 1072 14 114 214 227 228 341 13 114-159 228-145 342 13 113 27 227 41 341s214 228 227 341c14 114-158 228-145 342 14 114 214 228 228 341 14 114-159 228-145 342s214 227 228 341c13 114-159 228-145 342 13 113 672 180 686 294 13 113-159 227-145 341 13 114 213 228 227 342 14 113-158 227-145 341 22 180 544 327 1208 327z"/>
   <path class="fil2" d="m620 16941h709c140 0 249-147 254-327l160-5860c5-180-114-327-254-327h-1017c-140 0-259 147-255 327l148 5860c5 180 115 327 255 327z"/>
   <circle class="fil3" cx="980" cy="9984" r="980"/>
   <circle class="fil3" cx="980" cy="9984" r="980"/>
   <path class="fil4" d="m980 9004c408 0 758 249 906 604-604-335-1207-324-1811 0 148-355 497-604 905-604z"/>
   <circle class="fil5" cx="980" cy="18143" r="767"/>
   <path class="fil6" d="m626 17732h685c135 0 238-55 246-122l154-1337c8-67-110-122-246-122h-982c-135 0-253 55-246 122l143 1337c7 67 110 122 246 122z"/>
   <path class="fil2" d="m7568 16941h709c140 0 250-147 255-327l160-5860c5-180-115-327-255-327h-1016c-140 0-259 147-255 327l148 5860c4 180 114 327 254 327z"/>
   <circle class="fil5" cx="7929" cy="18143" r="767"/>
   <circle class="fil3" cx="7929" cy="9984" r="980"/>
   <path class="fil4" d="m7929 9004c-408 0-757 249-905 604 604-335 1207-324 1811 0-148-355-498-604-906-604z"/>
   <path class="fil6" d="m7580 17732h686c135 0 238-55 246-122l154-1337c8-67-111-122-246-122h-982c-135 0-253 55-246 122l142 1337c8 67 111 122 246 122z"/>
   <path class="fil7" d="m2572 16657h1307c180 0 327 147 327 327v4785c0 180-147 327-327 327h-1307c-179 0-327-147-327-327v-4785c0-180 148-327 327-327z"/>
   <path class="fil8" d="m2762 27293h911c180 0 319-148 328-328l205-4563c8-180-147-327-327-327h-1307c-179 0-334 147-327 327l190 4563c8 180 147 328 327 328z"/>
   <path class="fil7" d="m5134 16657h1307c179 0 327 147 327 327v4785c0 180-148 327-327 327h-1307c-180 0-327-147-327-327v-4785c0-180 147-327 327-327z"/>
   <path class="fil8" d="m5324 27293h911c180 0 319-148 327-328l206-4563c8-180-148-327-327-327h-1307c-180 0-335 147-327 327l190 4563c7 180 147 328 327 328z"/>
   <path class="fil9" d="m3197 26482c699 0 1265 516 1265 1154 0 96-13 189-37 278h-2456c-24-89-37-182-37-278 0-638 566-1154 1265-1154z"/>
   <path class="fil10" d="m1579 475c1941-674 3857-591 5756 0 501 1795 358 2833-364 4332h-5028c-627-1546-1048-2532-364-4332z"/>
   <ellipse class="fil11" cx="1815" cy="10048" rx="339" ry="689"/>
   <ellipse class="fil11" cx="7097" cy="10052" rx="339" ry="689"/>
   <polygon class="fil12" points="1953 9203 6965 9203 7314 9491 7036 17082 6841 17362 2117 17362 1932 17082 1611 9491"/>
   <polygon class="fil13" points="1953 9203 6965 9203 7305 9484 1619 9484"/>
   <path class="fil14" d="m3633 15021h1630c322 0 619-188 585-338s-87-176-80-299c8-122 116-230 123-353 8-122-87-230-79-353 7-122 115-230 123-353 7-122-87-230-80-353 8-122 116-230 123-353 8-122-87-230-80-353 8-122 116-230 123-353 8-122-87-230-79-353 7-122 98-234 123-353 24-118 31-234 21-353-9-118-87-230-79-353 7-122 115-230 123-353 7-122-88-230-80-353 7-122 82-235 123-353l22-353h-3467c7 118 14 236 20 353 7 118 104 236 110 353 7 118-76 236-70 353 7 118 104 236 110 353 7 118-76 236-70 353 7 118 14 236 20 353 7 118 104 236 110 353 7 118-76 236-70 353 7 118 104 236 110 353 7 118-76 236-70 353 7 118 104 236 110 353 7 118-77 236-70 353 7 118 104 236 110 353 7 118-77 236-70 353 7 118 104 236 110 353 7 118-77 181-70 299 11 186 263 338 585 338z"/>
   <path class="fil15" d="m1943 4276h5028c389 1644 370 3289 0 4933h-5028c-337-1602-337-3247 0-4933z"/>
   <path class="fil16" d="m3660 14977h1577c311 0 598-182 566-327-33-144-85-223-77-341 7-118 111-223 119-341 7-119-85-224-78-342 8-118 112-223 120-341 7-119-85-223-78-342 8-118 112-223 119-341 8-119-84-223-77-342 7-118 112-223 119-341 8-118-84-223-77-342 7-118 96-226 119-341 24-115 31-226 21-341-9-115-84-223-77-342 7-118 112-223 119-341 7-119-84-223-77-342 7-118 79-227 119-341l21-342h-3353c7 114 13 228 19 342 7 114 101 228 107 341 6 114-74 228-68 342 7 114 100 227 107 341 6 114-75 228-68 342 6 113 13 227 19 341 7 114 100 228 107 342 6 113-75 227-68 341 6 114 100 228 106 341 7 114-74 228-68 342 7 114 101 227 107 341s-74 228-68 342c7 113 100 227 107 341 6 114-75 228-68 342 6 113 100 227 106 341 7 114-74 228-68 341 11 180 255 327 566 327z"/>
   <path class="fil17" d="m6137 9203l21-350c11-180-254-327-566-327h-2260c-311 0-576 147-566 327l20 350h3351z"/>
   <path class="fil18" d="m3571 9203l5-350c2-180-55-327-121-327h-123c-186 0-355 52-459 133-15 54-24 122-23 194l4 350h717z"/>
   <path class="fil18" d="m5372 9203l-4-350c-3-180 54-327 121-327h103c201 0 383 61 484 153 12 50 18 110 17 174l-4 350h-717z"/>
   <path class="fil18" d="m3694 9203l-5-350c-2-180 55-327 121-327h484c67 0 123 147 121 327l-4 350h-717z"/>
   <path class="fil18" d="m5250 9203l4-350c3-180-54-327-121-327h-483c-67 0-124 147-121 327l4 350h717z"/>
   <path class="fil19" d="m5728 26482c-699 0-1266 516-1266 1154 0 96 13 189 37 278h2457c24-89 37-182 37-278 0-638-567-1154-1265-1154z"/>
   <rect class="fil20" x="1684" y="4153" width="5546" height="632" rx="222" ry="218"/>
   <path class="fil21" d="m3844 11613c5 11 7 23 7 35 0 85-117 154-261 154s-261-69-261-154c0-12 2-24 7-35 27 67 130 118 254 118 123 0 227-51 254-118z"/>
   <path class="fil21" d="m4745 9604c5 12 8 24 8 36 0 85-117 154-262 154-144 0-261-69-261-154 0-12 2-24 7-36 27 68 131 119 254 119 124 0 227-51 254-119z"/>
   <path class="fil21" d="m5631 9573c5 11 7 23 7 36 0 85-117 154-261 154-145 0-262-69-262-154 0-13 3-25 7-36 28 68 131 118 255 118 123 0 226-50 254-118z"/>
   <path class="fil21" d="m4935 11549c5 12 7 24 7 36 0 85-117 154-261 154s-261-69-261-154c0-12 2-24 7-36 27 68 131 119 254 119s227-51 254-119z"/>
   <path class="fil21" d="m3828 11976c5 12 7 24 7 36 0 85-117 154-261 154s-261-69-261-154c0-12 2-24 7-36 27 68 131 118 254 118s227-50 254-118z"/>
   <path class="fil21" d="m4730 9968c4 12 7 24 7 36 0 85-117 154-262 154-144 0-261-69-261-154 0-12 2-24 7-36 28 68 131 118 254 118 124 0 227-50 255-118z"/>
   <path class="fil21" d="m5615 9937c5 11 7 23 7 35 0 85-117 154-261 154s-262-69-262-154c0-12 3-24 8-35 27 67 130 118 254 118 123 0 227-51 254-118z"/>
   <path class="fil21" d="m4239 11312c5 12 8 24 8 36 0 85-117 154-262 154-144 0-261-69-261-154 0-12 2-24 7-36 27 68 131 118 254 118 124 0 227-50 254-118z"/>
   <path class="fil21" d="m3971 10237c4 11 7 23 7 36 0 85-117 154-262 154-144 0-261-69-261-154 0-13 2-25 7-36 28 68 131 118 254 118 124 0 227-50 255-118z"/>
   <path class="fil21" d="m4160 12182c5 11 7 23 7 36 0 85-117 154-261 154s-261-69-261-154c0-13 2-25 7-36 27 68 131 118 254 118 124 0 227-50 254-118z"/>
   <path class="fil21" d="m4097 13510c5 12 7 24 7 36 0 85-117 154-261 154s-261-69-261-154c0-12 2-24 7-36 27 68 130 118 254 118 123 0 227-50 254-118z"/>
   <path class="fil21" d="m5062 10174c4 11 7 23 7 36 0 85-117 153-262 153-144 0-261-68-261-153 0-13 3-25 7-36 28 67 131 118 254 118 124 0 227-51 255-118z"/>
   <path class="fil21" d="m5583 11375c5 12 8 24 8 36 0 85-117 154-262 154-144 0-261-69-261-154 0-12 2-24 7-36 27 68 131 119 254 119 124 0 227-51 254-119z"/>
   <path class="fil21" d="m5599 12435c5 11 7 23 7 36 0 85-117 154-261 154s-261-69-261-154c0-13 2-25 7-36 27 68 131 118 254 118s227-50 254-118z"/>
   <path class="fil21" d="m5362 12024c5 11 7 23 7 36 0 85-117 154-261 154s-261-69-261-154c0-13 2-25 7-36 27 68 130 118 254 118 123 0 227-50 254-118z"/>
   <path class="fil21" d="m4983 13368c4 11 7 23 7 36 0 85-117 154-262 154-144 0-261-69-261-154 0-13 2-25 7-36 28 68 131 118 254 118 124 0 227-50 255-118z"/>
   <path class="fil21" d="m5583 13083c5 12 8 24 8 36 0 85-117 154-262 154-144 0-261-69-261-154 0-12 2-24 7-36 27 68 131 118 254 118 124 0 227-50 254-118z"/>
   <path class="fil21" d="m5631 13732c5 11 7 23 7 35 0 85-117 154-261 154-145 0-262-69-262-154 0-12 3-24 7-35 28 67 131 118 255 118 123 0 226-51 254-118z"/>
   <path class="fil21" d="m5457 14475c5 11 7 23 7 35 0 86-117 154-261 154-145 0-262-68-262-154 0-12 3-24 8-35 27 67 130 118 254 118 123 0 227-51 254-118z"/>
   <path class="fil21" d="m3892 12577c4 12 7 24 7 36 0 85-117 154-262 154-144 0-261-69-261-154 0-12 2-24 7-36 27 68 131 118 254 118 124 0 227-50 255-118z"/>
   <path class="fil21" d="m3828 13905c5 12 7 24 7 36 0 85-117 154-261 154s-261-69-261-154c0-12 2-24 7-36 27 68 131 119 254 119s227-51 254-119z"/>
   <path class="fil21" d="m4793 10569c4 12 7 24 7 36 0 85-117 154-261 154-145 0-262-69-262-154 0-12 3-24 7-36 28 68 131 118 255 118 123 0 226-50 254-118z"/>
   <path class="fil21" d="m5678 10537c5 12 7 24 7 36 0 85-117 154-261 154s-261-69-261-154c0-12 2-24 7-36 27 68 131 119 254 119 124 0 227-51 254-119z"/>
   <path class="fil21" d="m4983 12514c4 11 7 23 7 36 0 85-117 154-262 154-144 0-261-69-261-154 0-13 2-25 7-36 28 68 131 118 254 118 124 0 227-50 255-118z"/>
   <path class="fil21" d="m4983 12514c4 11 7 23 7 36 0 85-117 154-262 154-144 0-261-69-261-154 0-13 2-25 7-36 28 68 131 118 254 118 124 0 227-50 255-118z"/>
   <path class="fil21" d="m4919 13842c5 12 7 24 7 36 0 85-117 154-261 154s-261-69-261-154c0-12 2-24 7-36 27 68 131 118 254 118 124 0 227-50 254-118z"/>
   <path class="fil21" d="m3892 12988c4 12 7 24 7 36 0 85-117 154-262 154-144 0-261-69-261-154 0-12 2-24 7-36 27 68 131 118 254 118 124 0 227-50 255-118z"/>
   <path class="fil21" d="m3828 14317c5 11 7 23 7 35 0 85-117 154-261 154s-261-69-261-154c0-12 2-24 7-35 27 67 131 118 254 118s227-51 254-118z"/>
   <path class="fil21" d="m4793 10980c4 12 7 24 7 36 0 85-117 154-261 154-145 0-262-69-262-154 0-12 3-24 7-36 28 68 131 118 255 118 123 0 226-50 254-118z"/>
   <path class="fil21" d="m5678 10949c5 11 7 23 7 35 0 85-117 154-261 154s-261-69-261-154c0-12 2-24 7-35 27 67 131 118 254 118 124 0 227-51 254-118z"/>
   <path class="fil21" d="m4983 12925c4 12 7 24 7 36 0 85-117 154-262 154-144 0-261-69-261-154 0-12 2-24 7-36 28 68 131 118 254 118 124 0 227-50 255-118z"/>
   <path class="fil21" d="m4919 14253c5 12 7 24 7 36 0 85-117 154-261 154s-261-69-261-154c0-12 2-24 7-36 27 68 131 118 254 118 124 0 227-50 254-118z"/>
   <path class="fil21" d="m3892 12988c4 12 7 24 7 36 0 85-117 154-262 154-144 0-261-69-261-154 0-12 2-24 7-36 27 68 131 118 254 118 124 0 227-50 255-118z"/>
   <path class="fil21" d="m3828 14317c5 11 7 23 7 35 0 85-117 154-261 154s-261-69-261-154c0-12 2-24 7-35 27 67 131 118 254 118s227-51 254-118z"/>
   <path class="fil21" d="m4793 10980c4 12 7 24 7 36 0 85-117 154-261 154-145 0-262-69-262-154 0-12 3-24 7-36 28 68 131 118 255 118 123 0 226-50 254-118z"/>
   <path class="fil21" d="m5678 10949c5 11 7 23 7 35 0 85-117 154-261 154s-261-69-261-154c0-12 2-24 7-35 27 67 131 118 254 118 124 0 227-51 254-118z"/>
   <path class="fil21" d="m4983 12925c4 12 7 24 7 36 0 85-117 154-262 154-144 0-261-69-261-154 0-12 2-24 7-36 28 68 131 118 254 118 124 0 227-50 255-118z"/>
   <path class="fil21" d="m4919 14253c5 12 7 24 7 36 0 85-117 154-261 154s-261-69-261-154c0-12 2-24 7-36 27 68 131 118 254 118 124 0 227-50 254-118z"/>
   <path class="fil21" d="m4461 14585c4 12 7 24 7 36 0 85-117 154-261 154-145 0-262-69-262-154 0-12 3-24 7-36 28 68 131 119 255 119 123 0 226-51 254-119z"/>
    <path class="fil14" d="m3026 6408c392 0 711-291 711-649 0-53-8-106-21-156h-1380c-13 50-20 103-20 156 0 358 318 649 710 649z"/>
    <path class="fil18" d="m3026 6344c331 0 599-244 599-546 0-45-6-89-18-131h-1162c-12 42-18 86-18 131 0 302 268 546 599 546z"/>
    <circle class="fil22" cx="3027" cy="5971" r="308"/>
    <circle class="fil14" cx="3027" cy="5971" r="174"/>
    <path class="fil14" d="m5920 6408c392 0 710-291 710-649 0-53-7-106-21-156h-1379c-13 50-21 103-21 156 0 358 318 649 711 649z"/>
    <path class="fil18" d="m5920 6344c330 0 598-244 598-546 0-45-6-89-17-131h-1162c-12 42-18 86-18 131 0 302 268 546 599 546z"/>
    <circle class="fil22" cx="5921" cy="5971" r="308"/>
    <circle class="fil14" cx="5921" cy="5971" r="174"/>
   <polygon class="fil23" points="4242 5893 4566 5893 4732 7561 4099 7561"/>
    <path class="fil24" d="m4072 7672c475-181 519 292 0 610-174 107-394 157-581 146-447-26-855-176-1211-345 735 78 1404-262 1792-411z"/>
    <path class="fil24" d="m4817 7672c-474-181-518 292 0 610 174 107 395 157 582 146 447-26 854-176 1211-345-736 78-1404-262-1793-411z"/>
   <path class="fil14" d="m3370 5087c246 44 366 242 367 441h-1707c446-151 845-530 1340-441z"/>
   <path class="fil14" d="m5576 5087c-246 44-366 242-367 441h1707c-446-151-846-530-1340-441z"/>
   <rect class="fil14" x="180" y="16099" width="1589" height="202" rx="255" ry="109"/>
   <rect class="fil14" x="7134" y="16099" width="1589" height="202" rx="255" ry="109"/>
   <polygon class="fil25" points="7036 17074 7036 17082 6841 17362 2117 17362 1932 17082 1931 17074"/>
    <rect class="fil26" x="1928" y="10456" width="763" height="241"/>
    <circle class="fil27" cx="2067" cy="10577" r="267"/>
    <rect class="fil26" x="6174" y="10456" width="763" height="241"/>
    <circle class="fil28" cx="6797" cy="10577" r="267"/>
    <rect class="fil26" x="2058" y="13172" width="763" height="241"/>
    <circle class="fil27" cx="2198" cy="13293" r="267"/>
    <rect class="fil26" x="6043" y="13172" width="763" height="241"/>
    <circle class="fil28" cx="6666" cy="13293" r="267"/>
    <rect class="fil26" x="2015" y="12267" width="763" height="241"/>
    <circle class="fil27" cx="2155" cy="12387" r="267"/>
    <rect class="fil26" x="6087" y="12267" width="763" height="241"/>
    <circle class="fil28" cx="6709" cy="12387" r="267"/>
    <rect class="fil26" x="1971" y="11361" width="763" height="241"/>
    <circle class="fil27" cx="2111" cy="11482" r="267"/>
    <rect class="fil26" x="6130" y="11361" width="763" height="241"/>
    <circle class="fil28" cx="6753" cy="11482" r="267"/>
    <rect class="fil26" x="2080" y="14077" width="763" height="241"/>
    <circle class="fil27" cx="2220" cy="14198" r="267"/>
    <rect class="fil26" x="6021" y="14077" width="763" height="241"/>
    <circle class="fil28" cx="6644" cy="14198" r="267"/>
   <path class="fil21" d="m3654 9668c5 11 7 23 7 36 0 85-117 153-261 153s-261-68-261-153c0-13 2-25 7-36 27 67 131 118 254 118 124 0 227-51 254-118z"/>
   <path class="fil21" d="m3639 10031c4 12 7 24 7 36 0 85-117 154-262 154-144 0-261-69-261-154 0-12 2-24 7-36 27 68 131 119 254 119 124 0 227-51 255-119z"/>
   <path class="fil21" d="m3702 10632c4 12 7 24 7 36 0 85-117 154-261 154-145 0-262-69-262-154 0-12 3-24 7-36 28 68 131 118 255 118 123 0 226-50 254-118z"/>
   <path class="fil21" d="m3702 11043c4 12 7 24 7 36 0 85-117 154-261 154-145 0-262-69-262-154 0-12 3-24 7-36 28 68 131 119 255 119 123 0 226-51 254-119z"/>
   <path class="fil21" d="m3702 11043c4 12 7 24 7 36 0 85-117 154-261 154-145 0-262-69-262-154 0-12 3-24 7-36 28 68 131 119 255 119 123 0 226-51 254-119z"/>
   <path class="fil29" d="m1865 15601h5228c114 0 130 633-33 633h-5151c-221 0-143-633-44-633z"/>
   <rect class="fil30" x="3599" y="15372" width="1736" height="1107" rx="334" ry="327"/>
   <rect class="fil31" x="3723" y="15451" width="1488" height="949" rx="286" ry="280"/>
   <circle class="fil32" cx="4457" cy="1941" r="1356"/>
   <circle class="fil14" cx="4457" cy="1941" r="1295"/>
   <polygon class="fil33" points="4457 977 4653 1601 5292 1459 4850 1941 5292 2424 4653 2281 4457 2906 4261 2281 3622 2424 4064 1941 3622 1459 4261 1601"/>
   <rect class="fil34" x="731" y="27866" width="7463" height="1834" rx="218" ry="154"/>
</svg>
